<svg preserveAspectRatio="none" width="100%" height="100%" overflow="visible" style="display: block;" viewBox="0 0 68 68" fill="none" xmlns="http://www.w3.org/2000/svg">
<path id="Vector" d="M55.2803 14.1555C53.5235 9.96182 50.5662 6.38076 46.78 3.86222C42.9939 1.34368 38.5476 0 34 0C29.4523 0 25.0061 1.34368 21.2199 3.86222C17.4338 6.38076 14.4765 9.96182 12.7197 14.1555C8.92568 15.8892 5.70981 18.6763 3.45482 22.185C1.19983 25.6937 0.000670138 29.7763 7.07372e-05 33.9469C-0.0302863 45.5408 9.71433 55.5564 21.2925 55.8599C24.8538 55.9458 28.3822 55.1613 31.5714 53.5745V65.572C31.5714 66.2159 31.8273 66.8335 32.2827 67.2888C32.7382 67.7442 33.3559 68 34 68C34.6441 68 35.2618 67.7442 35.7172 67.2888C36.1727 66.8335 36.4286 66.2159 36.4286 65.572V53.5745C39.4477 55.0733 42.772 55.8554 46.1428 55.8599H46.6953C58.2856 55.5564 68.0333 45.5408 67.9999 33.9469C67.9993 29.7763 66.8002 25.6937 64.5452 22.185C62.2902 18.6763 59.0743 15.8892 55.2803 14.1555ZM46.583 51.0038C42.9614 51.0981 39.4041 50.0349 36.4286 47.9688V35.5252L49.6582 28.9149C49.9436 28.7722 50.1981 28.5747 50.4072 28.3336C50.6163 28.0926 50.7759 27.8128 50.8768 27.5101C50.9777 27.2074 51.018 26.8878 50.9954 26.5695C50.9728 26.2513 50.8877 25.9406 50.745 25.6552C50.6022 25.3699 50.4047 25.1154 50.1636 24.9063C49.9225 24.6973 49.6426 24.5378 49.3399 24.4369C49.0371 24.336 48.7174 24.2957 48.3991 24.3183C48.0808 24.3409 47.77 24.426 47.4846 24.5687L36.4286 30.0803V21.8675C36.4286 21.2236 36.1727 20.606 35.7172 20.1506C35.2618 19.6953 34.6441 19.4395 34 19.4395C33.3559 19.4395 32.7382 19.6953 32.2827 20.1506C31.8273 20.606 31.5714 21.2236 31.5714 21.8675V37.3644L20.5154 31.8346C19.9389 31.5464 19.2716 31.499 18.6601 31.7027C18.0487 31.9065 17.5433 32.3448 17.255 32.9211C16.9668 33.4974 16.9194 34.1646 17.1232 34.7759C17.327 35.3872 17.7653 35.8926 18.3418 36.1807L31.5714 42.791V47.9506C28.5966 50.0182 25.0388 51.0816 21.417 50.9856C12.4161 50.7701 4.83292 42.967 4.8572 33.9591C4.8549 30.5713 5.86946 27.2608 7.76963 24.4558C9.6698 21.6508 12.3681 19.4805 15.5156 18.2255C15.8313 18.0987 16.1169 17.907 16.3538 17.6629C16.5907 17.4187 16.7736 17.1275 16.8907 16.8081C18.1718 13.3008 20.5002 10.2719 23.5606 8.13192C26.6209 5.99188 30.2653 4.84412 34 4.84412C37.7347 4.84412 41.379 5.99188 44.4394 8.13192C47.4998 10.2719 49.8282 13.3008 51.1092 16.8081C51.2264 17.1275 51.4093 17.4187 51.6462 17.6629C51.8831 17.907 52.1687 18.0987 52.4844 18.2255C55.6314 19.4812 58.3292 21.6517 60.2293 24.4565C62.1294 27.2614 63.1443 30.5715 63.1428 33.9591C63.1671 42.967 55.5839 50.7701 46.583 51.0038Z" fill="var(--fill-0, #36392B)"/>
</svg>
