<svg preserveAspectRatio="none" width="100%" height="100%" overflow="visible" style="display: block;" viewBox="0 0 64 64" fill="none" xmlns="http://www.w3.org/2000/svg">
<g id="Frame">
<path id="Vector" d="M60.83 29.1725L56.83 25.1725C56.1516 24.4949 55.2524 24.0835 54.2961 24.0133C53.3398 23.9431 52.3901 24.2187 51.62 24.79L39.21 12.38C39.7816 11.6102 40.0577 10.6607 39.9879 9.7044C39.9182 8.74813 39.5073 7.84872 38.83 7.17L34.83 3.17C34.4586 2.79847 34.0176 2.50375 33.5322 2.30267C33.0468 2.1016 32.5266 1.9981 32.0013 1.9981C31.4759 1.9981 30.9557 2.1016 30.4703 2.30267C29.9849 2.50375 29.5439 2.79847 29.1725 3.17L13.1725 19.17C12.801 19.5414 12.5062 19.9824 12.3052 20.4678C12.1041 20.9532 12.0006 21.4734 12.0006 21.9988C12.0006 22.5241 12.1041 23.0443 12.3052 23.5297C12.5062 24.0151 12.801 24.4561 13.1725 24.8275L17.1725 28.8275C17.8511 29.5041 18.75 29.9146 19.7057 29.9844C20.6614 30.0541 21.6104 29.7784 22.38 29.2075L24.1725 31L7.8275 47.345C6.7416 48.5326 6.15563 50.0933 6.19161 51.7022C6.22758 53.311 6.88273 54.844 8.02063 55.9819C9.15853 57.1198 10.6915 57.7749 12.3003 57.8109C13.9092 57.8469 15.4699 57.2609 16.6575 56.175L33 39.83L34.7925 41.62C34.2209 42.3898 33.9448 43.3393 34.0146 44.2956C34.0843 45.2519 34.4952 46.1513 35.1725 46.83L39.1725 50.83C39.5439 51.2015 39.9849 51.4963 40.4703 51.6973C40.9557 51.8984 41.4759 52.0019 42.0013 52.0019C42.5266 52.0019 43.0468 51.8984 43.5322 51.6973C44.0176 51.4963 44.4586 51.2015 44.83 50.83L60.83 34.83C61.2015 34.4586 61.4963 34.0176 61.6973 33.5322C61.8984 33.0468 62.0019 32.5266 62.0019 32.0013C62.0019 31.4759 61.8984 30.9557 61.6973 30.4703C61.4963 29.9849 61.2015 29.5439 60.83 29.1725ZM20 26L16 22L32 6L36 10L20 26ZM13.83 53.345C13.4084 53.7641 12.8382 53.9993 12.2437 53.9993C11.6493 53.9993 11.0791 53.7641 10.6575 53.345C10.2392 52.9235 10.0045 52.3538 10.0045 51.76C10.0045 51.1662 10.2392 50.5965 10.6575 50.175L27 33.83L30.1725 37L13.83 53.345ZM25.25 26.415L36.415 15.25L48.75 27.585L37.5875 38.75L25.25 26.415ZM42 48L38 44L39 43L53 29L54 28L58 32L42 48Z" fill="var(--fill-0, #576238)"/>
</g>
</svg>
