<svg preserveAspectRatio="none" width="100%" height="100%" overflow="visible" style="display: block;" viewBox="0 0 64 64" fill="none" xmlns="http://www.w3.org/2000/svg">
<g id="Frame">
<path id="Vector" d="M59.415 4.585C59.2293 4.39905 59.0087 4.25153 58.7659 4.15088C58.5231 4.05023 58.2628 3.99843 58 3.99843C57.7372 3.99843 57.4769 4.05023 57.2341 4.15088C56.9913 4.25153 56.7707 4.39905 56.585 4.585L43.485 17.6875L42.1425 16.3425C40.6405 14.8449 38.606 14.0039 36.485 14.0039C34.364 14.0039 32.3295 14.8449 30.8275 16.3425L25 22.1725L23.415 20.585C23.0397 20.2097 22.5307 19.9989 22 19.9989C21.4693 19.9989 20.9603 20.2097 20.585 20.585C20.2097 20.9603 19.9989 21.4693 19.9989 22C19.9989 22.5307 20.2097 23.0397 20.585 23.415L22.1725 25L16.3425 30.8275C15.5994 31.5704 15.01 32.4524 14.6078 33.4231C14.2057 34.3938 13.9987 35.4343 13.9987 36.485C13.9987 37.5357 14.2057 38.5762 14.6078 39.5469C15.01 40.5176 15.5994 41.3996 16.3425 42.1425L17.6875 43.485L4.585 56.585C4.39918 56.7708 4.25178 56.9914 4.15121 57.2342C4.05065 57.477 3.99889 57.7372 3.99889 58C3.99889 58.2628 4.05065 58.523 4.15121 58.7658C4.25178 59.0086 4.39918 59.2292 4.585 59.415C4.96028 59.7903 5.46927 60.0011 6 60.0011C6.26279 60.0011 6.52301 59.9493 6.76579 59.8488C7.00858 59.7482 7.22918 59.6008 7.415 59.415L20.515 46.3125L21.8575 47.6575C22.6004 48.4006 23.4824 48.99 24.4531 49.3922C25.4238 49.7943 26.4643 50.0013 27.515 50.0013C28.5657 50.0013 29.6062 49.7943 30.5769 49.3922C31.5476 48.99 32.4296 48.4006 33.1725 47.6575L39 41.8275L40.585 43.415C40.7708 43.6008 40.9914 43.7482 41.2342 43.8488C41.477 43.9493 41.7372 44.0011 42 44.0011C42.2628 44.0011 42.523 43.9493 42.7658 43.8488C43.0086 43.7482 43.2292 43.6008 43.415 43.415C43.6008 43.2292 43.7482 43.0086 43.8488 42.7658C43.9494 42.523 44.0011 42.2628 44.0011 42C44.0011 41.7372 43.9494 41.477 43.8488 41.2342C43.7482 40.9914 43.6008 40.7708 43.415 40.585L41.8275 39L47.6575 33.1725C48.4006 32.4296 48.99 31.5476 49.3922 30.5769C49.7943 29.6062 50.0013 28.5657 50.0013 27.515C50.0013 26.4643 49.7943 25.4238 49.3922 24.4531C48.99 23.4824 48.4006 22.6004 47.6575 21.8575L46.3125 20.515L59.415 7.415C59.601 7.22925 59.7485 7.00868 59.8491 6.76588C59.9498 6.52308 60.0016 6.26283 60.0016 6C60.0016 5.73717 59.9498 5.47692 59.8491 5.23412C59.7485 4.99132 59.601 4.77075 59.415 4.585ZM30.3425 44.835C29.5924 45.5846 28.5754 46.0056 27.515 46.0056C26.4546 46.0056 25.4376 45.5846 24.6875 44.835L19.1725 39.3125C18.4229 38.5624 18.0019 37.5454 18.0019 36.485C18.0019 35.4246 18.4229 34.4076 19.1725 33.6575L25 27.8275L36.1725 39L30.3425 44.835ZM44.8275 30.35L39 36.1725L27.8275 25L33.6575 19.1725C34.4076 18.4229 35.4246 18.0019 36.485 18.0019C37.5454 18.0019 38.5624 18.4229 39.3125 19.1725L44.8275 24.6725C45.2009 25.0442 45.4972 25.486 45.6994 25.9725C45.9016 26.459 46.0057 26.9806 46.0057 27.5075C46.0057 28.0344 45.9016 28.556 45.6994 29.0425C45.4972 29.529 45.2009 29.9708 44.8275 30.3425V30.35ZM22.1425 8.75C21.9436 8.25736 21.9485 7.70588 22.1562 7.21688C22.3639 6.72788 22.7574 6.34141 23.25 6.1425C23.7426 5.94359 24.2941 5.94852 24.7831 6.15622C25.2721 6.36392 25.6586 6.75736 25.8575 7.25L27.8575 12.25C27.956 12.4939 28.0055 12.7549 28.0031 13.0179C28.0008 13.281 27.9466 13.541 27.8438 13.7831C27.7409 14.0253 27.5914 14.2448 27.4037 14.4291C27.2161 14.6134 26.9939 14.759 26.75 14.8575C26.5061 14.956 26.2451 15.0055 25.9821 15.0031C25.719 15.0008 25.459 14.9466 25.2169 14.8438C24.9747 14.7409 24.7552 14.5914 24.5709 14.4037C24.3866 14.2161 24.241 13.9939 24.1425 13.75L22.1425 8.75ZM6.1425 23.25C6.24064 23.0058 6.38602 22.7834 6.5703 22.5955C6.75457 22.4076 6.97412 22.2579 7.21636 22.155C7.4586 22.0521 7.71876 21.998 7.98193 21.9959C8.24511 21.9938 8.50612 22.0436 8.75 22.1425L13.75 24.1425C13.9939 24.241 14.2161 24.3866 14.4037 24.5709C14.5914 24.7552 14.7409 24.9748 14.8438 25.2169C14.9466 25.459 15.0008 25.719 15.0031 25.9821C15.0055 26.2451 14.956 26.5061 14.8575 26.75C14.759 26.9939 14.6134 27.2161 14.4291 27.4037C14.2448 27.5914 14.0252 27.7409 13.7831 27.8438C13.541 27.9466 13.281 28.0008 13.0179 28.0031C12.7549 28.0055 12.4939 27.956 12.25 27.8575L7.25 25.8575C7.0058 25.7594 6.78338 25.614 6.59547 25.4297C6.40757 25.2454 6.25788 25.0259 6.155 24.7836C6.05211 24.5414 5.99804 24.2812 5.9959 24.0181C5.99375 23.7549 6.04357 23.4939 6.1425 23.25ZM57.8575 40.75C57.76 40.994 57.6155 41.2163 57.432 41.4044C57.2486 41.5925 57.0299 41.7426 56.7885 41.8461C56.547 41.9497 56.2876 42.0046 56.0249 42.0079C55.7622 42.0111 55.5014 41.9626 55.2575 41.865L50.2575 39.865C50.0131 39.767 49.7904 39.6218 49.602 39.4377C49.4137 39.2537 49.2635 39.0343 49.16 38.7922C49.0564 38.55 49.0016 38.2899 48.9986 38.0266C48.9956 37.7633 49.0445 37.5019 49.1425 37.2575C49.2405 37.0131 49.3857 36.7903 49.5698 36.602C49.7538 36.4137 49.9732 36.2635 50.2153 36.16C50.4575 36.0564 50.7176 36.0016 50.9809 35.9986C51.2442 35.9956 51.5056 36.0445 51.75 36.1425L56.75 38.1425C56.9942 38.2406 57.2166 38.386 57.4045 38.5703C57.5924 38.7546 57.7421 38.9741 57.845 39.2164C57.9479 39.4586 58.002 39.7188 58.0041 39.9819C58.0062 40.2451 57.9564 40.5061 57.8575 40.75ZM41.8575 55.265C41.955 55.5089 42.0035 55.7697 42.0002 56.0324C41.997 56.295 41.942 56.5545 41.8385 56.7959C41.7349 57.0374 41.5849 57.256 41.3968 57.4395C41.2088 57.6229 40.9864 57.7675 40.7425 57.865C40.4986 57.9625 40.2378 58.011 39.9751 58.0077C39.7125 58.0045 39.453 57.9495 39.2116 57.846C38.9701 57.7424 38.7515 57.5924 38.568 57.4043C38.3846 57.2163 38.24 56.9939 38.1425 56.75L36.1425 51.75C35.9436 51.2574 35.9485 50.7059 36.1562 50.2169C36.3639 49.7279 36.7574 49.3414 37.25 49.1425C37.7426 48.9436 38.2941 48.9485 38.7831 49.1562C39.2721 49.3639 39.6586 49.7574 39.8575 50.25L41.8575 55.265Z" fill="var(--fill-0, #576238)"/>
</g>
</svg>
