<svg width="32" height="32" viewBox="0 0 32 32" fill="none" xmlns="http://www.w3.org/2000/svg">
<circle cx="16" cy="16" r="16" fill="#576238"/>
<path d="M24.2171 9.18453C24.2171 8.88358 23.8961 8.69378 23.6353 8.84015L16.1905 13.018L13.4458 14.5685C12.9897 14.8251 12.9018 15.261 13.0285 15.4898C13.1551 15.7182 13.5685 15.872 14.0252 15.6153L16.5999 14.1671C17.0059 13.9387 17.5002 13.9395 17.905 14.1677L17.9242 14.1787L24.2171 17.8652V9.18453ZM7.78291 18.5507C7.78292 18.6953 7.86148 18.8284 7.98805 18.8975L15.8134 23.1639L15.8244 23.1697C15.9386 23.2272 16.0738 23.2253 16.1866 23.1639L17.1942 22.6145L14.8445 21.2379C14.6576 21.1284 14.5943 20.8871 14.703 20.6988C14.8117 20.5106 15.0513 20.4468 15.2381 20.5563L17.8769 22.1022C17.9162 22.1253 17.95 22.1542 17.978 22.1872L19.5945 21.3059L14.7799 18.4854C14.593 18.3759 14.5297 18.1346 14.6383 17.9464C14.747 17.7581 14.9867 17.6943 15.1735 17.8038L20.2382 20.7708C20.2895 20.8008 20.3314 20.8408 20.3631 20.8868L21.9737 20.0087L17.0539 17.1263C16.867 17.0169 16.8036 16.7755 16.9123 16.5873C17.021 16.399 17.2606 16.3352 17.4475 16.4447L22.6927 19.5177C22.7207 19.5342 22.746 19.5537 22.7683 19.5755L24.012 18.8975C24.0769 18.8622 24.1295 18.8095 24.1651 18.747L17.5307 14.8604C17.3613 14.7613 17.1524 14.7595 16.9816 14.8555L14.407 16.3037C13.7051 16.6983 12.7492 16.6037 12.3449 15.874C11.9409 15.1449 12.3614 14.2757 13.0628 13.8808L15.198 12.6745L8.36475 8.84019C8.10402 8.69382 7.78293 8.88357 7.78291 9.18453V18.5507ZM25 18.5507C25 18.9845 24.7642 19.3843 24.3846 19.591L16.559 23.8575C16.2104 24.0473 15.7899 24.0474 15.4412 23.8577L7.61536 19.591C7.23626 19.3841 7 18.9849 7 18.5507V9.18453C7.00001 8.28219 7.9629 7.71187 8.74577 8.15132L16 12.2218L23.2542 8.15132C24.0371 7.71188 25 8.2822 25 9.18453V18.5507Z" fill="white"/>
</svg>
