<svg preserveAspectRatio="none" width="100%" height="100%" overflow="visible" style="display: block;" viewBox="0 0 32 32" fill="none" xmlns="http://www.w3.org/2000/svg">
<g id="Frame">
<path id="Vector" d="M27.7962 19.8075L21.9075 17.1688L21.8913 17.1612C21.5855 17.0305 21.2521 16.978 20.921 17.0086C20.5899 17.0391 20.2716 17.1518 19.995 17.3363C19.9624 17.3578 19.9311 17.3811 19.9013 17.4063L16.8587 20C14.9312 19.0637 12.9413 17.0888 12.005 15.1862L14.6025 12.0975C14.6275 12.0663 14.6513 12.035 14.6738 12.0013C14.8543 11.7254 14.9638 11.4092 14.9926 11.0807C15.0214 10.7523 14.9685 10.4218 14.8388 10.1187V10.1037L12.1925 4.205C12.0209 3.80908 11.7259 3.47927 11.3515 3.2648C10.9771 3.05033 10.5433 2.9627 10.115 3.015C8.42121 3.23788 6.86647 4.06971 5.74117 5.35512C4.61586 6.64053 3.99694 8.29161 4 10C4 19.925 12.075 28 22 28C23.7084 28.0031 25.3595 27.3841 26.6449 26.2588C27.9303 25.1335 28.7621 23.5788 28.985 21.885C29.0374 21.4568 28.95 21.0232 28.7357 20.6488C28.5215 20.2744 28.1919 19.9793 27.7962 19.8075ZM22 26C17.758 25.9954 13.691 24.3082 10.6914 21.3086C7.69183 18.309 6.00463 14.242 6 10C5.9953 8.77936 6.43506 7.59874 7.23717 6.67863C8.03928 5.75852 9.14888 5.16183 10.3588 5C10.3583 5.00499 10.3583 5.01001 10.3588 5.015L12.9838 10.89L10.4 13.9825C10.3738 14.0127 10.35 14.0449 10.3287 14.0787C10.1406 14.3674 10.0303 14.6997 10.0084 15.0436C9.98649 15.3874 10.0538 15.7311 10.2037 16.0413C11.3362 18.3575 13.67 20.6737 16.0112 21.805C16.3237 21.9536 16.6694 22.0185 17.0144 21.9936C17.3595 21.9686 17.6922 21.8545 17.98 21.6625C18.0121 21.6409 18.043 21.6175 18.0725 21.5925L21.1113 19L26.9863 21.6312C26.9863 21.6312 26.9963 21.6312 27 21.6312C26.8401 22.8428 26.2443 23.9547 25.3241 24.7588C24.4038 25.5629 23.2221 26.0041 22 26Z" fill="var(--fill-0, #FAF9F5)"/>
</g>
</svg>
