<svg preserveAspectRatio="none" width="100%" height="100%" overflow="visible" style="display: block;" viewBox="0 0 71.995 67.2063" fill="none" xmlns="http://www.w3.org/2000/svg">
<g id="Group 1">
<path id="Vector" d="M71.8837 2.36513C71.8494 1.77793 71.6007 1.22377 71.1848 0.807847C70.7688 0.391927 70.2147 0.14321 69.6275 0.108919C54.098 -0.791166 41.6289 3.93128 36.2704 12.7761C32.7301 18.6237 32.7361 25.7253 36.2224 32.5C34.238 34.8623 32.7877 37.6257 31.971 40.6008L27.0895 35.7013C29.4357 30.8018 29.3457 25.6953 26.7895 21.4529C22.8291 14.9153 13.6873 11.411 2.33723 12.0771C1.75003 12.1113 1.19586 12.3601 0.779944 12.776C0.364025 13.1919 0.115309 13.7461 0.0810179 14.3333C-0.588044 25.6833 2.91928 34.8252 9.45689 38.7856C11.6143 40.1037 14.0934 40.8013 16.6216 40.8018C19.0755 40.7716 21.4912 40.1902 23.6902 39.1006L31.1909 46.6013V55.2031C31.1909 55.8397 31.4438 56.4502 31.8939 56.9004C32.344 57.3505 32.9546 57.6034 33.5911 57.6034C34.2277 57.6034 34.8382 57.3505 35.2883 56.9004C35.7385 56.4502 35.9914 55.8397 35.9914 55.2031V46.3553C35.9807 42.5368 37.2801 38.8302 39.6727 35.8543C42.7598 37.4677 46.1836 38.3311 49.6666 38.3745C53.0341 38.3854 56.339 37.4655 59.2165 35.7163C68.0613 30.3638 72.7958 17.8946 71.8837 2.36513ZM11.9321 34.6812C7.32969 31.8939 4.72545 25.2963 4.78846 16.7995C13.2852 16.7275 19.8829 19.3407 22.6701 23.9432C24.1253 26.3434 24.3623 29.1427 23.4082 32.0259L16.0845 24.7022C15.6307 24.2711 15.0265 24.0343 14.4006 24.0423C13.7747 24.0503 13.1767 24.3025 12.7341 24.7451C12.2915 25.1878 12.0393 25.7857 12.0313 26.4116C12.0233 27.0375 12.2601 27.6418 12.6912 28.0956L20.0149 35.4193C17.1316 36.3734 14.3353 36.1363 11.9321 34.6812ZM56.7293 31.6149C52.7089 34.0481 47.9835 34.2342 43.183 32.215L59.2915 16.1034C59.7227 15.6496 59.9595 15.0454 59.9514 14.4195C59.9434 13.7936 59.6912 13.1956 59.2486 12.753C58.806 12.3104 58.208 12.0582 57.5821 12.0502C56.9563 12.0422 56.352 12.279 55.8982 12.7101L39.7867 28.8006C37.7585 24.0002 37.9415 19.2717 40.3868 15.2544C44.5692 8.3537 54.4881 4.50734 67.1883 4.80436C67.4763 17.5016 63.6359 27.4325 56.7293 31.6149Z" fill="var(--fill-0, #36392B)"/>
<path id="Ellipse 1 (Stroke)" d="M20.402 67.2063C21.7276 67.2063 22.8022 66.1317 22.8022 64.8061H44.4042C44.4042 66.1317 45.4788 67.2063 46.8044 67.2063C48.13 67.2063 49.2046 66.1317 49.2046 64.8061C49.2046 61.1982 47.189 58.1421 44.3503 56.0771C41.5087 54.0105 37.7008 52.805 33.6032 52.805C29.5056 52.805 25.6977 54.0105 22.8561 56.0771C20.0173 58.1421 18.0017 61.1982 18.0017 64.8061C18.0017 66.1317 19.0764 67.2063 20.402 67.2063Z" fill="var(--fill-0, #36392B)"/>
</g>
</svg>
