<svg preserveAspectRatio="none" width="100%" height="100%" overflow="visible" style="display: block;" viewBox="0 0 64 64" fill="none" xmlns="http://www.w3.org/2000/svg">
<g id="Frame">
<path id="Vector" d="M44 4H20C18.4087 4 16.8826 4.63214 15.7574 5.75736C14.6321 6.88258 14 8.4087 14 10V54C14 55.5913 14.6321 57.1174 15.7574 58.2426C16.8826 59.3679 18.4087 60 20 60H44C45.5913 60 47.1174 59.3679 48.2426 58.2426C49.3679 57.1174 50 55.5913 50 54V10C50 8.4087 49.3679 6.88258 48.2426 5.75736C47.1174 4.63214 45.5913 4 44 4ZM18 16H46V48H18V16ZM20 8H44C44.5304 8 45.0391 8.21071 45.4142 8.58579C45.7893 8.96086 46 9.46957 46 10V12H18V10C18 9.46957 18.2107 8.96086 18.5858 8.58579C18.9609 8.21071 19.4696 8 20 8ZM44 56H20C19.4696 56 18.9609 55.7893 18.5858 55.4142C18.2107 55.0391 18 54.5304 18 54V52H46V54C46 54.5304 45.7893 55.0391 45.4142 55.4142C45.0391 55.7893 44.5304 56 44 56Z" fill="var(--fill-0, #576238)"/>
</g>
</svg>
