<svg preserveAspectRatio="none" width="100%" height="100%" overflow="visible" style="display: block;" viewBox="0 0 32 32" fill="none" xmlns="http://www.w3.org/2000/svg">
<g id="Frame">
<path id="Vector" d="M28.7075 27.2925L22.4488 21.035C24.2628 18.8571 25.1674 16.0637 24.9743 13.2359C24.7812 10.4081 23.5054 7.76357 21.4122 5.85246C19.319 3.94136 16.5696 2.91082 13.7359 2.97522C10.9022 3.03962 8.20245 4.194 6.19823 6.19823C4.194 8.20245 3.03962 10.9022 2.97522 13.7359C2.91082 16.5696 3.94136 19.319 5.85246 21.4122C7.76357 23.5054 10.4081 24.7812 13.2359 24.9743C16.0637 25.1674 18.8571 24.2628 21.035 22.4488L27.2925 28.7075C27.3854 28.8004 27.4957 28.8741 27.6171 28.9244C27.7385 28.9747 27.8686 29.0006 28 29.0006C28.1314 29.0006 28.2615 28.9747 28.3829 28.9244C28.5043 28.8741 28.6146 28.8004 28.7075 28.7075C28.8004 28.6146 28.8741 28.5043 28.9244 28.3829C28.9747 28.2615 29.0006 28.1314 29.0006 28C29.0006 27.8686 28.9747 27.7385 28.9244 27.6171C28.8741 27.4957 28.8004 27.3854 28.7075 27.2925ZM5 14C5 12.22 5.52784 10.4799 6.51677 8.99987C7.50571 7.51983 8.91131 6.36627 10.5558 5.68508C12.2004 5.0039 14.01 4.82567 15.7558 5.17293C17.5016 5.5202 19.1053 6.37737 20.364 7.63604C21.6226 8.89471 22.4798 10.4984 22.8271 12.2442C23.1743 13.99 22.9961 15.7996 22.3149 17.4442C21.6337 19.0887 20.4802 20.4943 19.0001 21.4832C17.5201 22.4722 15.78 23 14 23C11.6139 22.9974 9.32622 22.0483 7.63896 20.361C5.95171 18.6738 5.00265 16.3861 5 14Z" fill="var(--fill-0, #576238)"/>
</g>
</svg>
