<svg preserveAspectRatio="none" width="100%" height="100%" overflow="visible" style="display: block;" viewBox="0 0 227.641 77.7212" fill="none" xmlns="http://www.w3.org/2000/svg">
<g id="Group 15">
<path id="Vector (Stroke)" d="M84.0622 5.75396C84.0621 4.29203 82.4947 3.3701 81.2217 4.08111L81.2214 4.0813L81.2204 4.08167L81.2214 4.08317L44.8724 24.3753L44.8722 24.3751L31.4716 31.9071L31.4686 31.9089C29.2417 33.1552 28.8152 35.2709 29.4341 36.3823C30.052 37.4917 32.0705 38.2386 34.3006 36.9917L46.8713 29.957V29.9568C48.8535 28.8477 51.2669 28.8516 53.2436 29.9598L53.3373 30.0135L53.3377 30.0137L84.0622 47.9211V5.75396ZM3.82257 51.2509C3.82259 51.9532 4.20618 52.5996 4.82413 52.9354L43.0315 73.6598L43.0851 73.6878C43.6424 73.9673 44.3027 73.9579 44.8532 73.6598L49.7731 70.9909L38.3005 64.304C37.3882 63.7722 37.0788 62.5998 37.6096 61.6855C38.1403 60.7712 39.3102 60.4611 40.2226 60.9929L53.1064 68.5026C53.2984 68.6145 53.4634 68.755 53.5998 68.9152L61.4924 64.6343L37.9853 50.9337C37.0728 50.4019 36.7634 49.2296 37.2941 48.3152C37.8248 47.4009 38.9948 47.0908 39.9072 47.6226L64.6354 62.0349C64.8857 62.1808 65.0903 62.3751 65.245 62.5988L73.1087 58.3333L49.0879 44.3319C48.1755 43.8001 47.866 42.6275 48.3967 41.7132C48.9275 40.7989 50.0974 40.489 51.0098 41.0208L76.6192 55.9482C76.7563 56.0281 76.8796 56.1229 76.9887 56.2287L83.0606 52.9354L83.0619 52.9348C83.379 52.7631 83.6345 52.5077 83.8081 52.2045L51.416 33.325V33.3248C50.5889 32.8432 49.5691 32.8347 48.7351 33.3012L36.1645 40.3361L36.1641 40.3362C32.7371 42.2529 28.0702 41.7933 26.0963 38.2487C24.1241 34.7071 26.1767 30.4848 29.6016 28.5662L40.0268 22.7068L6.66336 4.0813L6.66299 4.08111C5.38998 3.37008 3.82263 4.29203 3.82257 5.75396V51.2509ZM87.8847 51.2509C87.8847 53.3579 86.7334 55.2999 84.88 56.3039L84.8802 56.3041L46.6717 77.029L46.6706 77.0298C44.9683 77.9516 42.9164 77.9516 41.2141 77.0298L41.213 77.029L3.00449 56.3041L3.00374 56.3037C1.1528 55.2988 2.34288e-05 53.3599 0 51.2509V5.75396C5.98245e-05 1.37078 4.70133 -1.39961 8.52369 0.73503L43.9422 20.5076L79.361 0.73503C83.1834 -1.39956 87.8847 1.3708 87.8847 5.75396V51.2509Z" fill="var(--fill-0, #FDFBF7)"/>
<g id="Groene Vingers">
<path d="M115.773 33.0733C111.835 33.0733 108.863 32.0068 106.857 29.8737C104.875 27.7407 103.885 24.8511 103.885 21.2051C103.885 18.576 104.318 16.3065 105.185 14.3967C106.052 12.4621 107.365 10.9739 109.123 9.93221C110.906 8.89049 113.16 8.36963 115.885 8.36963C117.297 8.36963 118.572 8.46884 119.711 8.66726C120.875 8.84088 121.965 9.10131 122.981 9.44856V12.9458C120.95 12.2017 118.696 11.8296 116.219 11.8296C113.173 11.8296 111.03 12.6357 109.792 14.2479C108.578 15.8601 107.971 18.1792 107.971 21.2051C107.971 23.9582 108.615 26.0541 109.903 27.4926C111.191 28.9312 113.185 29.6505 115.885 29.6505C118.015 29.6505 119.736 29.4025 121.049 28.9064V22.2096H115.067V19.5681H124.504V31.1015C123.736 31.5975 122.634 32.0564 121.197 32.478C119.786 32.8749 117.978 33.0733 115.773 33.0733Z" fill="var(--fill-0, #FDFBF7)"/>
<path d="M128.428 32.7012V15.0664H132.143L132.366 17.1126C133.208 16.567 134.211 16.0709 135.375 15.6245C136.54 15.178 137.691 14.868 138.831 14.6944V17.7823C138.137 17.9063 137.382 18.0924 136.564 18.3404C135.772 18.5636 135.016 18.824 134.298 19.1217C133.58 19.3945 132.973 19.6797 132.478 19.9774V32.7012H128.428Z" fill="var(--fill-0, #FDFBF7)"/>
<path d="M149.487 33.0733C146.317 33.0733 143.989 32.2796 142.503 30.6922C141.041 29.1048 140.311 26.8354 140.311 23.8838C140.311 20.9323 141.054 18.6628 142.54 17.0754C144.026 15.4881 146.342 14.6944 149.487 14.6944C152.658 14.6944 154.986 15.4881 156.472 17.0754C157.958 18.6628 158.701 20.9323 158.701 23.8838C158.701 26.8354 157.958 29.1048 156.472 30.6922C155.011 32.2796 152.682 33.0733 149.487 33.0733ZM149.487 29.6505C151.345 29.6505 152.658 29.204 153.425 28.3111C154.218 27.3934 154.614 25.9177 154.614 23.8838C154.614 21.85 154.218 20.3866 153.425 19.4937C152.658 18.6008 151.345 18.1544 149.487 18.1544C147.654 18.1544 146.342 18.6008 145.549 19.4937C144.781 20.3866 144.398 21.85 144.398 23.8838C144.398 25.9177 144.781 27.3934 145.549 28.3111C146.342 29.204 147.654 29.6505 149.487 29.6505Z" fill="var(--fill-0, #FDFBF7)"/>
<path d="M171.557 33.0733C168.486 33.0733 166.109 32.3168 164.424 30.8038C162.74 29.2908 161.898 26.9718 161.898 23.8466C161.898 21.0191 162.616 18.7868 164.053 17.1498C165.489 15.5129 167.669 14.6944 170.591 14.6944C173.266 14.6944 175.273 15.4012 176.61 16.815C177.972 18.204 178.653 20.0022 178.653 22.2096V25.4836H165.762C165.96 27.195 166.579 28.3731 167.619 29.018C168.66 29.6629 170.245 29.9853 172.375 29.9853C173.266 29.9853 174.183 29.8985 175.124 29.7249C176.065 29.5513 176.883 29.3281 177.576 29.0552V32.0316C176.783 32.3788 175.867 32.6392 174.827 32.8129C173.811 32.9865 172.722 33.0733 171.557 33.0733ZM165.762 22.8421H175.087V21.6144C175.087 20.399 174.752 19.4565 174.084 18.7868C173.415 18.0924 172.288 17.7451 170.703 17.7451C168.821 17.7451 167.52 18.1544 166.802 18.9729C166.109 19.7913 165.762 21.0811 165.762 22.8421Z" fill="var(--fill-0, #FDFBF7)"/>
<path d="M182.596 32.7012V15.0664H186.311L186.496 16.9266C187.289 16.3065 188.23 15.7857 189.32 15.364C190.435 14.9176 191.661 14.6944 192.998 14.6944C195.277 14.6944 196.936 15.2276 197.976 16.2941C199.017 17.3607 199.537 19.0225 199.537 21.2795V32.7012H195.524V21.4655C195.524 20.1014 195.239 19.1465 194.67 18.6008C194.125 18.0551 193.085 17.7823 191.549 17.7823C190.633 17.7823 189.729 17.9683 188.837 18.3404C187.97 18.7124 187.24 19.1961 186.645 19.7914V32.7012H182.596Z" fill="var(--fill-0, #FDFBF7)"/>
<path d="M212.627 33.0733C209.556 33.0733 207.179 32.3168 205.494 30.8038C203.81 29.2908 202.968 26.9718 202.968 23.8466C202.968 21.0191 203.686 18.7868 205.123 17.1498C206.559 15.5129 208.739 14.6944 211.662 14.6944C214.336 14.6944 216.343 15.4012 217.68 16.815C219.042 18.204 219.723 20.0022 219.723 22.2096V25.4836H206.832C207.03 27.195 207.649 28.3731 208.689 29.018C209.73 29.6629 211.315 29.9853 213.445 29.9853C214.336 29.9853 215.253 29.8985 216.194 29.7249C217.135 29.5513 217.953 29.3281 218.646 29.0552V32.0316C217.853 32.3788 216.937 32.6392 215.897 32.8129C214.881 32.9865 213.792 33.0733 212.627 33.0733ZM206.832 22.8421H216.157V21.6144C216.157 20.399 215.823 19.4565 215.154 18.7868C214.485 18.0924 213.358 17.7451 211.773 17.7451C209.891 17.7451 208.59 18.1544 207.872 18.9729C207.179 19.7913 206.832 21.0811 206.832 22.8421Z" fill="var(--fill-0, #FDFBF7)"/>
<path d="M113.061 62.8029L103.922 38.8433H108.12L115.29 58.45L122.461 38.8433H126.659L117.594 62.8029H113.061Z" fill="var(--fill-0, #FDFBF7)"/>
<path d="M130.458 41.4848V38.1365H134.879V41.4848H130.458ZM130.793 62.8029V48.256H128.118L128.489 45.1681H134.842V62.8029H130.793Z" fill="var(--fill-0, #FDFBF7)"/>
<path d="M139.566 62.8029V45.1681H143.282L143.467 47.0283C144.26 46.4082 145.201 45.8873 146.291 45.4657C147.405 45.0192 148.631 44.796 149.969 44.796C152.247 44.796 153.907 45.3293 154.947 46.3958C155.987 47.4623 156.508 49.1241 156.508 51.3812V62.8029H152.495V51.5672C152.495 50.203 152.21 49.2481 151.641 48.7025C151.096 48.1568 150.056 47.884 148.52 47.884C147.603 47.884 146.699 48.07 145.808 48.442C144.941 48.8141 144.21 49.2977 143.616 49.893V62.8029H139.566Z" fill="var(--fill-0, #FDFBF7)"/>
<path d="M168.178 69.3509C166.865 69.3509 165.552 69.2641 164.24 69.0904C162.927 68.9416 161.812 68.706 160.896 68.3836V65.2584C161.887 65.5808 163.026 65.8289 164.314 66.0025C165.602 66.1761 166.828 66.2629 167.992 66.2629C169.775 66.2629 171.076 66.1637 171.893 65.9653C172.71 65.7669 173.119 65.3204 173.119 64.6259C173.119 64.1051 172.921 63.733 172.525 63.5098C172.128 63.3114 171.373 63.2122 170.258 63.2122H165.503C162.308 63.2122 160.71 62.0836 160.71 59.8266C160.71 59.1073 160.921 58.4376 161.342 57.8175C161.763 57.1975 162.432 56.7262 163.348 56.4038C162.333 55.9077 161.577 55.2256 161.082 54.3575C160.611 53.4894 160.376 52.4477 160.376 51.2324C160.376 48.9753 161.045 47.3383 162.382 46.3214C163.744 45.3045 165.775 44.796 168.475 44.796C169.045 44.796 169.639 44.8456 170.258 44.9448C170.877 45.0192 171.36 45.0937 171.707 45.1681H178.172L178.06 47.8096H175.088C175.559 48.2064 175.905 48.7025 176.128 49.2977C176.351 49.893 176.463 50.5379 176.463 51.2324C176.463 53.1174 175.893 54.6056 174.754 55.6969C173.614 56.7634 171.893 57.2967 169.59 57.2967C169.193 57.2967 168.822 57.2843 168.475 57.2595C168.153 57.2099 167.794 57.1603 167.398 57.1106C166.655 57.1851 165.986 57.3835 165.391 57.7059C164.797 58.0284 164.5 58.4624 164.5 59.0081C164.5 59.3801 164.648 59.6529 164.946 59.8266C165.243 59.9754 165.738 60.0498 166.432 60.0498H171.373C173.131 60.0498 174.481 60.4342 175.422 61.2031C176.388 61.9472 176.871 63.0385 176.871 64.4771C176.871 66.2133 176.116 67.4534 174.605 68.1975C173.119 68.9664 170.977 69.3509 168.178 69.3509ZM168.475 54.7296C170.085 54.7296 171.199 54.4567 171.819 53.9111C172.463 53.3654 172.785 52.4353 172.785 51.1208C172.785 49.8062 172.463 48.8513 171.819 48.256C171.199 47.6608 170.085 47.3631 168.475 47.3631C166.964 47.3631 165.862 47.6484 165.169 48.2188C164.475 48.7893 164.128 49.7566 164.128 51.1208C164.128 52.3857 164.45 53.3034 165.094 53.8739C165.763 54.4443 166.89 54.7296 168.475 54.7296Z" fill="var(--fill-0, #FDFBF7)"/>
<path d="M190.17 63.1749C187.098 63.1749 184.721 62.4185 183.036 60.9055C181.352 59.3925 180.51 57.0734 180.51 53.9483C180.51 51.1208 181.228 48.8885 182.665 47.2515C184.101 45.6145 186.281 44.796 189.204 44.796C191.879 44.796 193.885 45.5029 195.222 46.9167C196.584 48.3056 197.266 50.1038 197.266 52.3113V55.5853H184.374C184.572 57.2967 185.191 58.4748 186.231 59.1197C187.272 59.7646 188.857 60.087 190.987 60.087C191.879 60.087 192.795 60.0002 193.736 59.8266C194.677 59.6529 195.495 59.4297 196.188 59.1569V62.1332C195.396 62.4805 194.479 62.7409 193.439 62.9145C192.423 63.0881 191.334 63.1749 190.17 63.1749ZM184.374 52.9438H193.699V51.716C193.699 50.5007 193.365 49.5582 192.696 48.8885C192.027 48.194 190.9 47.8468 189.315 47.8468C187.433 47.8468 186.132 48.256 185.414 49.0745C184.721 49.893 184.374 51.1828 184.374 52.9438Z" fill="var(--fill-0, #FDFBF7)"/>
<path d="M201.208 62.8029V45.1681H204.923L205.146 47.2143C205.988 46.6686 206.991 46.1726 208.155 45.7261C209.319 45.2797 210.471 44.9696 211.61 44.796V47.884C210.917 48.008 210.161 48.194 209.344 48.442C208.551 48.6653 207.796 48.9257 207.078 49.2233C206.359 49.4962 205.753 49.7814 205.257 50.079V62.8029H201.208Z" fill="var(--fill-0, #FDFBF7)"/>
<path d="M220.248 63.1749C219.034 63.1749 217.87 63.0881 216.755 62.9145C215.666 62.7409 214.762 62.5301 214.043 62.282V58.8592C214.885 59.1817 215.814 59.4297 216.83 59.6033C217.845 59.777 218.811 59.8638 219.727 59.8638C221.114 59.8638 222.105 59.7398 222.7 59.4917C223.294 59.2437 223.591 58.76 223.591 58.0408C223.591 57.5199 223.406 57.1107 223.034 56.813C222.687 56.5154 222.155 56.2425 221.436 55.9945C220.743 55.7465 219.851 55.4489 218.762 55.1016C217.721 54.7544 216.817 54.3823 216.049 53.9855C215.282 53.5638 214.687 53.0306 214.266 52.3857C213.845 51.7408 213.635 50.8975 213.635 49.8558C213.635 48.2436 214.217 47.0035 215.381 46.1354C216.545 45.2425 218.415 44.796 220.991 44.796C222.006 44.796 222.972 44.8704 223.888 45.0192C224.805 45.1681 225.585 45.3541 226.229 45.5773V48.9629C225.536 48.6901 224.768 48.4793 223.926 48.3304C223.108 48.1816 222.34 48.1072 221.622 48.1072C220.334 48.1072 219.356 48.2188 218.687 48.442C218.043 48.6653 217.721 49.1117 217.721 49.7814C217.721 50.4759 218.056 50.9719 218.724 51.2696C219.418 51.5424 220.52 51.9268 222.031 52.4229C223.418 52.8446 224.52 53.291 225.337 53.7623C226.155 54.2335 226.737 54.804 227.084 55.4737C227.455 56.1185 227.641 56.9618 227.641 58.0035C227.641 59.7397 227.009 61.0419 225.746 61.91C224.483 62.7533 222.65 63.1749 220.248 63.1749Z" fill="var(--fill-0, #FDFBF7)"/>
</g>
</g>
</svg>
