<svg preserveAspectRatio="none" width="100%" height="100%" overflow="visible" style="display: block;" viewBox="0 0 56.5385 50" fill="none" xmlns="http://www.w3.org/2000/svg">
<g id="Group 1">
<path id="Vector (Stroke)" d="M54.0793 3.70167C54.0793 2.76117 53.0709 2.16807 52.252 2.62548L52.2517 2.6256L52.2511 2.62584L52.2517 2.62681L28.8676 15.6813L28.8674 15.6811L20.2465 20.5266L20.2446 20.5278C18.8119 21.3296 18.5376 22.6907 18.9357 23.4057C19.3332 24.1194 20.6317 24.5999 22.0665 23.7977L30.1535 19.2721V19.272C31.4287 18.5585 32.9813 18.561 34.253 19.2739L34.3132 19.3085L34.3135 19.3086L54.0793 30.8289V3.70167ZM2.45915 32.971C2.45917 33.4228 2.70594 33.8386 3.10348 34.0547L27.6833 47.3872L27.7177 47.4052C28.0763 47.585 28.501 47.579 28.8552 47.3872L32.0203 45.6703L24.6397 41.3684C24.0527 41.0262 23.8537 40.272 24.1952 39.6839C24.5366 39.0957 25.2893 38.8962 25.8762 39.2383L34.1647 44.0695C34.2882 44.1414 34.3944 44.2319 34.4821 44.3349L39.5596 41.5809L24.4369 32.767C23.8499 32.4248 23.6508 31.6706 23.9922 31.0824C24.3337 30.4942 25.0863 30.2947 25.6733 30.6368L41.5816 39.9086C41.7426 40.0025 41.8742 40.1275 41.9737 40.2714L47.0326 37.5273L31.5795 28.5198C30.9925 28.1777 30.7934 27.4234 31.1348 26.8352C31.4763 26.247 32.2289 26.0476 32.8159 26.3897L49.291 35.9929C49.3793 36.0443 49.4586 36.1053 49.5288 36.1734L53.435 34.0547L53.4358 34.0543C53.6398 33.9439 53.8042 33.7796 53.9159 33.5844L33.0772 21.4388V21.4387C32.5451 21.1289 31.8891 21.1234 31.3525 21.4235L23.2655 25.9492L23.2653 25.9493C21.0606 27.1823 18.0582 26.8867 16.7884 24.6064C15.5196 22.328 16.8401 19.6116 19.0434 18.3774L25.7503 14.6078L4.28671 2.6256L4.28647 2.62548C3.46751 2.16806 2.45919 2.76117 2.45915 3.70167V32.971ZM56.5385 32.971C56.5384 34.3265 55.7978 35.5758 54.6055 36.2217L54.6056 36.2219L30.0251 49.5547L30.0244 49.5552C28.9292 50.1483 27.6092 50.1483 26.5141 49.5552L26.5134 49.5547L1.93286 36.2219L1.93238 36.2216C0.741628 35.5751 1.50723e-05 34.3278 0 32.971V3.70167C3.84866e-05 0.881859 3.02448 -0.900407 5.48351 0.472863L28.2691 13.193L51.0549 0.472863C53.514 -0.900371 56.5384 0.881872 56.5385 3.70167V32.971Z" fill="var(--fill-0, #576238)"/>
</g>
</svg>
