<svg preserveAspectRatio="none" width="100%" height="100%" overflow="visible" style="display: block;" viewBox="0 0 134 134" fill="none" xmlns="http://www.w3.org/2000/svg">
<path id="Vector" d="M108.935 27.8946C105.473 19.6306 99.6452 12.5738 92.1842 7.61084C84.7232 2.64784 75.9615 0 67 0C58.0385 0 49.2768 2.64784 41.8158 7.61084C34.3548 12.5738 28.5272 19.6306 25.0653 27.8946C17.5888 31.3111 11.2517 36.8033 6.80803 43.7175C2.36436 50.6318 0.00132057 58.6769 0.000139394 66.8954C-0.0596819 89.7421 19.143 109.479 41.9588 110.077C48.9766 110.246 55.9297 108.7 62.2143 105.573V129.215C62.2143 130.484 62.7185 131.701 63.616 132.599C64.5135 133.496 65.7307 134 67 134C68.2692 134 69.4865 133.496 70.384 132.599C71.2815 131.701 71.7857 130.484 71.7857 129.215V105.573C77.7351 108.527 84.286 110.068 90.9285 110.077H92.0172C114.857 109.479 134.066 89.7421 134 66.8954C133.999 58.6769 131.636 50.6318 127.192 43.7175C122.748 36.8033 116.411 31.3111 108.935 27.8946ZM91.7959 100.508C84.6592 100.693 77.6493 98.5982 71.7857 94.5267V70.0054L97.8558 56.9793C98.4183 56.6981 98.9199 56.3089 99.3319 55.8339C99.7439 55.3589 100.058 54.8075 100.257 54.211C100.456 53.6146 100.536 52.9848 100.491 52.3576C100.446 51.7305 100.279 51.1182 99.9974 50.5559C99.7162 49.9935 99.3269 49.4921 98.8518 49.0801C98.3767 48.6682 97.8251 48.3538 97.2285 48.155C96.6319 47.9562 96.002 47.8768 95.3747 47.9214C94.7474 47.9659 94.1351 48.1336 93.5726 48.4148L71.7857 59.2759V43.0919C71.7857 41.8229 71.2815 40.6059 70.384 39.7086C69.4865 38.8113 68.2692 38.3072 67 38.3072C65.7307 38.3072 64.5135 38.8113 63.616 39.7086C62.7185 40.6059 62.2143 41.8229 62.2143 43.0919V73.6298L40.4274 62.7328C39.2914 62.1649 37.9763 62.0715 36.7714 62.473C35.5665 62.8746 34.5705 63.7382 34.0026 64.8739C33.4346 66.0096 33.3411 67.3244 33.7427 68.5291C34.1444 69.7337 35.0082 70.7294 36.1442 71.2973L62.2143 84.3235V94.4908C56.3521 98.5654 49.3412 100.661 42.2041 100.472C24.4671 100.047 9.52369 84.6704 9.57155 66.9194C9.56701 60.2435 11.5663 53.7198 15.3107 48.1924C19.0552 42.6649 24.3725 38.388 30.5748 35.9149C31.197 35.6651 31.7597 35.2874 32.2266 34.8062C32.6934 34.3251 33.0539 33.7512 33.2847 33.1219C35.809 26.2104 40.3974 20.2418 46.4282 16.0247C52.4589 11.8075 59.6405 9.54576 67 9.54576C74.3595 9.54576 81.5411 11.8075 87.5718 16.0247C93.6026 20.2418 98.1909 26.2104 100.715 33.1219C100.946 33.7512 101.307 34.3251 101.773 34.8062C102.24 35.2874 102.803 35.6651 103.425 35.9149C109.627 38.3893 114.943 42.6666 118.687 48.1938C122.431 53.7209 124.431 60.2438 124.428 66.9194C124.476 84.6704 109.533 100.047 91.7959 100.508Z" fill="var(--fill-0, #36392B)"/>
</svg>
