<svg preserveAspectRatio="none" width="100%" height="100%" overflow="visible" style="display: block;" viewBox="0 0 160 128" fill="none" xmlns="http://www.w3.org/2000/svg">
<path id="Vector" d="M159.753 5.2554C159.676 3.95058 159.124 2.71917 158.199 1.79496C157.275 0.870745 156.043 0.318074 154.738 0.241875C120.226 -1.7582 92.515 8.73552 80.6064 28.3896C72.7384 41.3834 72.7518 57.164 80.4997 72.2179C76.0897 77.4672 72.8666 83.6076 71.0515 90.2186L60.2031 79.3315C65.4173 68.4444 65.2172 57.0973 59.5363 47.6703C50.7349 33.1431 30.4182 25.3562 5.19413 26.8362C3.88916 26.9124 2.65759 27.4651 1.73326 28.3893C0.808933 29.3135 0.256193 30.5449 0.179984 31.8497C-1.30692 57.0707 6.48768 77.3848 21.0167 86.1851C25.8113 89.114 31.3207 90.6642 36.9393 90.6653C42.3928 90.5981 47.7616 89.3062 52.6485 86.8851L69.3179 103.552V122.666C69.3179 124.081 69.8799 125.438 70.8802 126.438C71.8806 127.438 73.2374 128 74.6521 128C76.0668 128 77.4236 127.438 78.4239 126.438C79.4243 125.438 79.9863 124.081 79.9863 122.666V103.006C79.9626 94.5207 82.8504 86.2843 88.1676 79.6715C95.0284 83.2565 102.637 85.1751 110.378 85.2717C117.862 85.2959 125.206 83.2517 131.601 79.3648C151.258 67.4711 161.78 39.7634 159.753 5.2554ZM26.5176 77.0648C16.2893 70.8712 10.5017 56.2106 10.6417 37.3299C29.5248 37.1699 44.1871 42.9768 50.3815 53.2039C53.6153 58.5374 54.1421 64.7576 52.0217 71.1645L35.7458 54.8906C34.7373 53.9326 33.3944 53.4064 32.0034 53.4242C30.6125 53.442 29.2835 54.0024 28.2999 54.9859C27.3162 55.9694 26.7558 57.2982 26.738 58.689C26.7202 60.0798 27.2464 61.4225 28.2045 62.4309L44.4805 78.7048C38.0728 80.8249 31.8585 80.2982 26.5176 77.0648ZM126.074 70.2512C117.139 75.658 106.637 76.0714 95.9689 71.5846L131.768 35.7832C132.726 34.7748 133.252 33.4321 133.235 32.0413C133.217 30.6506 132.656 29.3218 131.673 28.3382C130.689 27.3547 129.36 26.7943 127.969 26.7765C126.578 26.7587 125.235 27.2849 124.227 28.2429L88.421 63.9976C83.9136 53.3305 84.3203 42.8235 89.7545 33.8965C99.0494 18.5626 121.093 10.0156 149.318 10.6756C149.958 38.89 141.423 60.9575 126.074 70.2512Z" fill="var(--fill-0, #36392B)"/>
</svg>
