<svg preserveAspectRatio="none" width="100%" height="100%" overflow="visible" style="display: block;" viewBox="0 0 32 32" fill="none" xmlns="http://www.w3.org/2000/svg">
<g id="Frame">
<path id="Vector" d="M24 12C24.8395 11.3704 25.4597 10.4925 25.7726 9.49084C26.0855 8.48916 26.0753 7.41442 25.7434 6.41886C25.4116 5.4233 24.7749 4.55739 23.9236 3.94379C23.0722 3.33019 22.0494 3 21 3H12C10.9506 3 9.92778 3.33019 9.07645 3.94379C8.22512 4.55739 7.58844 5.4233 7.25658 6.41886C6.92473 7.41442 6.91453 8.48916 7.22743 9.49084C7.54033 10.4925 8.16047 11.3704 9 12C8.36435 12.4764 7.85135 13.0973 7.50348 13.8115C7.15561 14.5256 6.9829 15.3123 6.99964 16.1065C7.01637 16.9006 7.22209 17.6794 7.59973 18.3782C7.97738 19.077 8.51609 19.6758 9.17125 20.125C8.42605 20.6916 7.83778 21.439 7.46217 22.2964C7.08655 23.1539 6.93601 24.093 7.0248 25.0249C7.11358 25.9568 7.43876 26.8507 7.96954 27.6218C8.50032 28.3929 9.21914 29.0157 10.0579 29.4314C10.8967 29.8471 11.8277 30.0417 12.7628 29.997C13.6978 29.9523 14.606 29.6696 15.4013 29.1758C16.1966 28.682 16.8526 27.9934 17.3074 27.1751C17.7622 26.3569 18.0006 25.4361 18 24.5V20C19.0609 20.7956 20.3944 21.1373 21.7071 20.9497C23.0199 20.7622 24.2044 20.0609 25 19C25.7956 17.9391 26.1373 16.6056 25.9497 15.2929C25.7622 13.9801 25.0609 12.7956 24 12ZM24 8C24 8.79565 23.6839 9.55871 23.1213 10.1213C22.5587 10.6839 21.7956 11 21 11H18V5H21C21.7956 5 22.5587 5.31607 23.1213 5.87868C23.6839 6.44129 24 7.20435 24 8ZM9 8C9 7.20435 9.31607 6.44129 9.87868 5.87868C10.4413 5.31607 11.2044 5 12 5H16V11H12C11.2044 11 10.4413 10.6839 9.87868 10.1213C9.31607 9.55871 9 8.79565 9 8ZM12 19C11.2044 19 10.4413 18.6839 9.87868 18.1213C9.31607 17.5587 9 16.7956 9 16C9 15.2044 9.31607 14.4413 9.87868 13.8787C10.4413 13.3161 11.2044 13 12 13H16V19H12ZM16 24.5C16 25.1922 15.7947 25.8689 15.4101 26.4445C15.0256 27.0201 14.4789 27.4687 13.8394 27.7336C13.1999 27.9985 12.4961 28.0678 11.8172 27.9327C11.1382 27.7977 10.5146 27.4644 10.0251 26.9749C9.53564 26.4854 9.2023 25.8617 9.06725 25.1828C8.9322 24.5039 9.00151 23.8001 9.26642 23.1606C9.53133 22.5211 9.97993 21.9744 10.5555 21.5899C11.1311 21.2053 11.8078 21 12.5 21H16V24.5ZM21 19C20.4067 19 19.8266 18.8241 19.3333 18.4944C18.8399 18.1648 18.4554 17.6962 18.2284 17.1481C18.0013 16.5999 17.9419 15.9967 18.0576 15.4147C18.1734 14.8328 18.4591 14.2982 18.8787 13.8787C19.2982 13.4591 19.8328 13.1734 20.4147 13.0576C20.9967 12.9419 21.5999 13.0013 22.1481 13.2284C22.6962 13.4554 23.1648 13.8399 23.4944 14.3333C23.8241 14.8266 24 15.4067 24 16C24 16.7956 23.6839 17.5587 23.1213 18.1213C22.5587 18.6839 21.7956 19 21 19Z" fill="var(--fill-0, #576238)"/>
</g>
</svg>
